# xmcd
#
# Track frame offsets:
#	150
#	600
#	23583
#	45487
#	67766
#	86361
#	104418
#	124550
#	148090
#	165558
#	193940
#	225861
#	249277
#	271432
#	291810
#
# Disc length: 4310 seconds
#
# Revision: 2
# Processed by: cddbd v1.5.2PL0 Copyright (c) Steve Scherf et al.
# Submitted via: audiograbber 1.83.01
#
DISCID=b910d40f
DTITLE=Karin Alvtegen - Skam - Skam CD 04-08
DYEAR=2005
DGENRE=Book
TTITLE0=04.01
TTITLE1=04.02
TTITLE2=04.03
TTITLE3=04.04
TTITLE4=04.05
TTITLE5=04.06
TTITLE6=04.07
TTITLE7=04.08
TTITLE8=04.09
TTITLE9=04.10
TTITLE10=04.11
TTITLE11=04.12
TTITLE12=04.13
TTITLE13=04.14
TTITLE14=04.15
EXTD=
EXTT0=
EXTT1=
EXTT2=
EXTT3=
EXTT4=
EXTT5=
EXTT6=
EXTT7=
EXTT8=
EXTT9=
EXTT10=
EXTT11=
EXTT12=
EXTT13=
EXTT14=
PLAYORDER=
